<?xml version="1.0" encoding="UTF-8"?>
<svg xmlns="http://www.w3.org/2000/svg" xmlns:xlink="http://www.w3.org/1999/xlink" width="504pt" height="360pt" viewBox="0 0 504 360">
<defs>
<g>
<g id="glyph-0-0">
<path d="M 2.421875 -6.359375 C 1.84375 -6.359375 1.3125 -6.09375 0.984375 -5.671875 C 0.578125 -5.109375 0.375 -4.25 0.375 -3.078125 C 0.375 -0.9375 1.078125 0.203125 2.421875 0.203125 C 3.734375 0.203125 4.453125 -0.9375 4.453125 -3.03125 C 4.453125 -4.25 4.265625 -5.078125 3.859375 -5.671875 C 3.53125 -6.109375 3.015625 -6.359375 2.421875 -6.359375 Z M 2.421875 -5.671875 C 3.25 -5.671875 3.671875 -4.828125 3.671875 -3.09375 C 3.671875 -1.28125 3.265625 -0.4375 2.40625 -0.4375 C 1.578125 -0.4375 1.171875 -1.3125 1.171875 -3.0625 C 1.171875 -4.828125 1.578125 -5.671875 2.421875 -5.671875 Z M 2.421875 -5.671875 "/>
</g>
<g id="glyph-0-1">
<path d="M 4.1875 -6.234375 L 0.96875 -6.234375 L 0.5 -2.84375 L 1.21875 -2.84375 C 1.578125 -3.265625 1.875 -3.421875 2.359375 -3.421875 C 3.203125 -3.421875 3.71875 -2.84375 3.71875 -1.921875 C 3.71875 -1.03125 3.203125 -0.484375 2.359375 -0.484375 C 1.6875 -0.484375 1.265625 -0.828125 1.078125 -1.53125 L 0.3125 -1.53125 C 0.40625 -1.015625 0.5 -0.78125 0.6875 -0.546875 C 1.03125 -0.078125 1.671875 0.203125 2.375 0.203125 C 3.640625 0.203125 4.515625 -0.71875 4.515625 -2.03125 C 4.515625 -3.265625 3.6875 -4.109375 2.5 -4.109375 C 2.0625 -4.109375 1.703125 -4 1.34375 -3.734375 L 1.59375 -5.46875 L 4.1875 -5.46875 Z M 4.1875 -6.234375 "/>
</g>
<g id="glyph-0-2">
<path d="M 2.28125 -4.53125 L 2.28125 0 L 3.046875 0 L 3.046875 -6.359375 L 2.546875 -6.359375 C 2.265625 -5.390625 2.09375 -5.25 0.890625 -5.09375 L 0.890625 -4.53125 Z M 2.28125 -4.53125 "/>
</g>
<g id="glyph-0-3">
<path d="M 4.453125 -0.765625 L 1.171875 -0.765625 C 1.25 -1.296875 1.53125 -1.625 2.296875 -2.09375 L 3.171875 -2.59375 C 4.046875 -3.0625 4.5 -3.71875 4.5 -4.5 C 4.5 -5.03125 4.28125 -5.53125 3.921875 -5.875 C 3.546875 -6.203125 3.09375 -6.359375 2.5 -6.359375 C 1.703125 -6.359375 1.125 -6.078125 0.78125 -5.53125 C 0.546875 -5.203125 0.453125 -4.796875 0.4375 -4.15625 L 1.21875 -4.15625 C 1.234375 -4.59375 1.296875 -4.84375 1.40625 -5.0625 C 1.59375 -5.4375 2 -5.6875 2.46875 -5.6875 C 3.171875 -5.6875 3.703125 -5.171875 3.703125 -4.484375 C 3.703125 -3.96875 3.40625 -3.53125 2.859375 -3.21875 L 2.046875 -2.75 C 0.75 -2 0.375 -1.40625 0.296875 -0.015625 L 4.453125 -0.015625 Z M 4.453125 -0.765625 "/>
</g>
<g id="glyph-0-4">
<path d="M 0.46875 -6.40625 L 0.46875 0 L 1.140625 0 L 1.140625 -0.59375 C 1.484375 -0.046875 1.953125 0.203125 2.59375 0.203125 C 3.8125 0.203125 4.59375 -0.796875 4.59375 -2.328125 C 4.59375 -3.8125 3.859375 -4.734375 2.625 -4.734375 C 2 -4.734375 1.546875 -4.5 1.203125 -3.984375 L 1.203125 -6.40625 Z M 2.484375 -4.0625 C 3.3125 -4.0625 3.828125 -3.34375 3.828125 -2.25 C 3.828125 -1.203125 3.296875 -0.484375 2.484375 -0.484375 C 1.703125 -0.484375 1.203125 -1.1875 1.203125 -2.265625 C 1.203125 -3.359375 1.703125 -4.0625 2.484375 -4.0625 Z M 2.484375 -4.0625 "/>
</g>
<g id="glyph-0-5">
<path d="M 1.34375 -6.40625 L 0.59375 -6.40625 L 0.59375 0 L 1.34375 0 Z M 1.34375 -6.40625 "/>
</g>
<g id="glyph-0-6">
<path d="M 4.703125 -0.4375 C 4.625 -0.40625 4.59375 -0.40625 4.546875 -0.40625 C 4.296875 -0.40625 4.15625 -0.546875 4.15625 -0.78125 L 4.15625 -3.484375 C 4.15625 -4.296875 3.546875 -4.734375 2.421875 -4.734375 C 1.734375 -4.734375 1.203125 -4.546875 0.890625 -4.203125 C 0.671875 -3.96875 0.59375 -3.703125 0.578125 -3.25 L 1.3125 -3.25 C 1.375 -3.8125 1.703125 -4.0625 2.390625 -4.0625 C 3.0625 -4.0625 3.421875 -3.8125 3.421875 -3.375 L 3.421875 -3.1875 C 3.40625 -2.875 3.25 -2.75 2.65625 -2.671875 C 1.625 -2.546875 1.453125 -2.5 1.171875 -2.390625 C 0.640625 -2.15625 0.375 -1.765625 0.375 -1.15625 C 0.375 -0.328125 0.953125 0.203125 1.875 0.203125 C 2.46875 0.203125 2.921875 0 3.453125 -0.46875 C 3.5 0 3.734375 0.203125 4.203125 0.203125 C 4.359375 0.203125 4.453125 0.1875 4.703125 0.125 Z M 3.421875 -1.453125 C 3.421875 -1.203125 3.359375 -1.0625 3.125 -0.859375 C 2.828125 -0.578125 2.46875 -0.4375 2.046875 -0.4375 C 1.46875 -0.4375 1.140625 -0.71875 1.140625 -1.171875 C 1.140625 -1.65625 1.453125 -1.90625 2.25 -2.015625 C 3.03125 -2.125 3.171875 -2.15625 3.421875 -2.28125 Z M 3.421875 -1.453125 "/>
</g>
<g id="glyph-0-7">
<path d="M 4.140625 -3.0625 C 4.109375 -3.515625 4.015625 -3.796875 3.828125 -4.0625 C 3.515625 -4.484375 2.96875 -4.734375 2.328125 -4.734375 C 1.078125 -4.734375 0.265625 -3.75 0.265625 -2.21875 C 0.265625 -0.734375 1.0625 0.203125 2.3125 0.203125 C 3.40625 0.203125 4.109375 -0.453125 4.203125 -1.578125 L 3.453125 -1.578125 C 3.328125 -0.84375 2.953125 -0.46875 2.328125 -0.46875 C 1.515625 -0.46875 1.03125 -1.140625 1.03125 -2.21875 C 1.03125 -3.375 1.515625 -4.0625 2.3125 -4.0625 C 2.921875 -4.0625 3.3125 -3.703125 3.40625 -3.0625 Z M 4.140625 -3.0625 "/>
</g>
<g id="glyph-0-8">
<path d="M 1.234375 -6.40625 L 0.515625 -6.40625 L 0.515625 0 L 1.234375 0 L 1.234375 -1.796875 L 1.953125 -2.5 L 3.515625 0 L 4.421875 0 L 2.53125 -3.015625 L 4.140625 -4.609375 L 3.1875 -4.609375 L 1.234375 -2.65625 Z M 1.234375 -6.40625 "/>
</g>
<g id="glyph-0-9">
<path d="M 1.3125 -4.609375 L 0.59375 -4.609375 L 0.59375 0 L 1.3125 0 Z M 1.3125 -6.40625 L 0.578125 -6.40625 L 0.578125 -5.484375 L 1.3125 -5.484375 Z M 1.3125 -6.40625 "/>
</g>
<g id="glyph-0-10">
<path d="M 2.390625 -4.734375 C 1.09375 -4.734375 0.3125 -3.8125 0.3125 -2.265625 C 0.3125 -0.71875 1.09375 0.203125 2.40625 0.203125 C 3.703125 0.203125 4.484375 -0.71875 4.484375 -2.234375 C 4.484375 -3.828125 3.734375 -4.734375 2.390625 -4.734375 Z M 2.40625 -4.0625 C 3.234375 -4.0625 3.71875 -3.390625 3.71875 -2.25 C 3.71875 -1.15625 3.203125 -0.46875 2.40625 -0.46875 C 1.578125 -0.46875 1.078125 -1.15625 1.078125 -2.265625 C 1.078125 -3.390625 1.578125 -4.0625 2.40625 -4.0625 Z M 2.40625 -4.0625 "/>
</g>
<g id="glyph-0-11">
<path d="M 3.546875 -4.609375 L 3.546875 -3.9375 C 3.1875 -4.5 2.78125 -4.734375 2.203125 -4.734375 C 1.078125 -4.734375 0.3125 -3.703125 0.3125 -2.21875 C 0.3125 -1.453125 0.5 -0.890625 0.890625 -0.421875 C 1.234375 -0.015625 1.671875 0.203125 2.140625 0.203125 C 2.703125 0.203125 3.09375 -0.046875 3.484375 -0.625 L 3.484375 -0.390625 C 3.484375 0.84375 3.140625 1.296875 2.21875 1.296875 C 1.59375 1.296875 1.28125 1.0625 1.203125 0.53125 L 0.453125 0.53125 C 0.53125 1.375 1.203125 1.921875 2.203125 1.921875 C 2.890625 1.921875 3.453125 1.703125 3.75 1.328125 C 4.09375 0.890625 4.234375 0.328125 4.234375 -0.75 L 4.234375 -4.609375 Z M 2.265625 -4.0625 C 3.046875 -4.0625 3.484375 -3.40625 3.484375 -2.25 C 3.484375 -1.125 3.03125 -0.46875 2.265625 -0.46875 C 1.515625 -0.46875 1.078125 -1.140625 1.078125 -2.265625 C 1.078125 -3.390625 1.515625 -4.0625 2.265625 -4.0625 Z M 2.265625 -4.0625 "/>
</g>
<g id="glyph-0-12">
<path d="M 0.609375 -4.609375 L 0.609375 0 L 1.359375 0 L 1.359375 -2.546875 C 1.359375 -3.484375 1.84375 -4.09375 2.609375 -4.09375 C 3.1875 -4.09375 3.546875 -3.75 3.546875 -3.1875 L 3.546875 0 L 4.28125 0 L 4.28125 -3.484375 C 4.28125 -4.25 3.71875 -4.734375 2.828125 -4.734375 C 2.140625 -4.734375 1.703125 -4.484375 1.296875 -3.828125 L 1.296875 -4.609375 Z M 0.609375 -4.609375 "/>
</g>
<g id="glyph-0-13">
<path d="M 4.515625 -2.0625 C 4.515625 -2.765625 4.453125 -3.1875 4.328125 -3.53125 C 4.03125 -4.28125 3.328125 -4.734375 2.46875 -4.734375 C 1.171875 -4.734375 0.359375 -3.765625 0.359375 -2.25 C 0.359375 -0.71875 1.140625 0.203125 2.453125 0.203125 C 3.5 0.203125 4.234375 -0.390625 4.421875 -1.40625 L 3.671875 -1.40625 C 3.46875 -0.796875 3.0625 -0.46875 2.46875 -0.46875 C 2 -0.46875 1.609375 -0.6875 1.359375 -1.078125 C 1.1875 -1.34375 1.125 -1.59375 1.125 -2.0625 Z M 1.140625 -2.65625 C 1.203125 -3.515625 1.71875 -4.0625 2.453125 -4.0625 C 3.203125 -4.0625 3.71875 -3.484375 3.71875 -2.65625 Z M 1.140625 -2.65625 "/>
</g>
<g id="glyph-0-14">
<path d="M 0.609375 -4.609375 L 0.609375 0 L 1.34375 0 L 1.34375 -2.390625 C 1.359375 -3.5 1.8125 -4 2.828125 -3.96875 L 2.828125 -4.71875 C 2.703125 -4.734375 2.625 -4.734375 2.546875 -4.734375 C 2.0625 -4.734375 1.703125 -4.453125 1.28125 -3.78125 L 1.28125 -4.609375 Z M 0.609375 -4.609375 "/>
</g>
<g id="glyph-0-15">
<path d="M 2.234375 -4.609375 L 1.484375 -4.609375 L 1.484375 -5.875 L 0.75 -5.875 L 0.75 -4.609375 L 0.125 -4.609375 L 0.125 -4.015625 L 0.75 -4.015625 L 0.75 -0.53125 C 0.75 -0.046875 1.0625 0.203125 1.640625 0.203125 C 1.828125 0.203125 1.984375 0.1875 2.234375 0.140625 L 2.234375 -0.46875 C 2.125 -0.453125 2.03125 -0.4375 1.875 -0.4375 C 1.5625 -0.4375 1.484375 -0.53125 1.484375 -0.859375 L 1.484375 -4.015625 L 2.234375 -4.015625 Z M 2.234375 -4.609375 "/>
</g>
<g id="glyph-0-16">
<path d="M 3.40625 -4.609375 L 2.140625 -1.015625 L 0.953125 -4.609375 L 0.171875 -4.609375 L 1.734375 0.015625 L 1.453125 0.75 C 1.328125 1.078125 1.171875 1.203125 0.859375 1.203125 C 0.734375 1.203125 0.640625 1.171875 0.46875 1.140625 L 0.46875 1.796875 C 0.625 1.875 0.78125 1.921875 0.96875 1.921875 C 1.203125 1.921875 1.453125 1.84375 1.65625 1.703125 C 1.875 1.53125 2.015625 1.34375 2.15625 0.96875 L 4.203125 -4.609375 Z M 3.40625 -4.609375 "/>
</g>
<g id="glyph-0-17">
<path d="M 3.859375 -3.328125 C 3.84375 -4.234375 3.25 -4.734375 2.1875 -4.734375 C 1.109375 -4.734375 0.40625 -4.1875 0.40625 -3.328125 C 0.40625 -2.609375 0.78125 -2.265625 1.875 -2 L 2.5625 -1.84375 C 3.0625 -1.71875 3.265625 -1.53125 3.265625 -1.203125 C 3.265625 -0.765625 2.84375 -0.46875 2.203125 -0.46875 C 1.796875 -0.46875 1.46875 -0.59375 1.28125 -0.78125 C 1.171875 -0.921875 1.125 -1.046875 1.078125 -1.375 L 0.296875 -1.375 C 0.328125 -0.3125 0.9375 0.203125 2.140625 0.203125 C 3.296875 0.203125 4.03125 -0.375 4.03125 -1.265625 C 4.03125 -1.9375 3.65625 -2.328125 2.734375 -2.546875 L 2.03125 -2.703125 C 1.4375 -2.84375 1.171875 -3.046875 1.171875 -3.375 C 1.171875 -3.796875 1.5625 -4.0625 2.15625 -4.0625 C 2.75 -4.0625 3.0625 -3.8125 3.078125 -3.328125 Z M 3.859375 -3.328125 "/>
</g>
<g id="glyph-0-18">
<path d="M 0.609375 -6.40625 L 0.609375 0 L 1.34375 0 L 1.34375 -2.546875 C 1.34375 -3.484375 1.84375 -4.09375 2.59375 -4.09375 C 2.84375 -4.09375 3.0625 -4.03125 3.25 -3.890625 C 3.453125 -3.734375 3.546875 -3.515625 3.546875 -3.1875 L 3.546875 0 L 4.28125 0 L 4.28125 -3.484375 C 4.28125 -4.25 3.71875 -4.734375 2.828125 -4.734375 C 2.171875 -4.734375 1.78125 -4.546875 1.34375 -3.96875 L 1.34375 -6.40625 Z M 0.609375 -6.40625 "/>
</g>
<g id="glyph-0-19">
<path d="M 4.875 0 L 6.234375 -4.609375 L 5.40625 -4.609375 L 4.484375 -1.015625 L 3.578125 -4.609375 L 2.6875 -4.609375 L 1.796875 -1.015625 L 0.859375 -4.609375 L 0.046875 -4.609375 L 1.390625 0 L 2.21875 0 L 3.109375 -3.609375 L 4.03125 0 Z M 4.875 0 "/>
</g>
<g id="glyph-1-0">
<path d="M 5.1875 -3.828125 C 5.140625 -4.390625 5.015625 -4.75 4.796875 -5.078125 C 4.40625 -5.609375 3.703125 -5.921875 2.90625 -5.921875 C 1.34375 -5.921875 0.34375 -4.703125 0.34375 -2.78125 C 0.34375 -0.921875 1.328125 0.25 2.890625 0.25 C 4.265625 0.25 5.140625 -0.578125 5.25 -1.984375 L 4.328125 -1.984375 C 4.171875 -1.0625 3.703125 -0.59375 2.921875 -0.59375 C 1.90625 -0.59375 1.296875 -1.421875 1.296875 -2.78125 C 1.296875 -4.21875 1.890625 -5.078125 2.890625 -5.078125 C 3.65625 -5.078125 4.140625 -4.625 4.25 -3.828125 Z M 5.1875 -3.828125 "/>
</g>
<g id="glyph-1-1">
<path d="M 2.984375 -5.921875 C 1.359375 -5.921875 0.390625 -4.78125 0.390625 -2.84375 C 0.390625 -0.890625 1.359375 0.25 3 0.25 C 4.625 0.25 5.609375 -0.90625 5.609375 -2.796875 C 5.609375 -4.796875 4.65625 -5.921875 2.984375 -5.921875 Z M 3 -5.078125 C 4.03125 -5.078125 4.65625 -4.234375 4.65625 -2.8125 C 4.65625 -1.4375 4.015625 -0.59375 3 -0.59375 C 1.984375 -0.59375 1.359375 -1.4375 1.359375 -2.84375 C 1.359375 -4.234375 1.984375 -5.078125 3 -5.078125 Z M 3 -5.078125 "/>
</g>
<g id="glyph-1-2">
<path d="M 5.890625 -0.53125 C 5.78125 -0.515625 5.734375 -0.515625 5.6875 -0.515625 C 5.375 -0.515625 5.1875 -0.6875 5.1875 -0.96875 L 5.1875 -4.359375 C 5.1875 -5.375 4.4375 -5.921875 3.03125 -5.921875 C 2.171875 -5.921875 1.5 -5.6875 1.109375 -5.265625 C 0.84375 -4.96875 0.734375 -4.625 0.71875 -4.0625 L 1.640625 -4.0625 C 1.71875 -4.765625 2.140625 -5.078125 2.984375 -5.078125 C 3.828125 -5.078125 4.28125 -4.78125 4.28125 -4.21875 L 4.28125 -3.984375 C 4.265625 -3.59375 4.0625 -3.4375 3.328125 -3.34375 C 2.03125 -3.171875 1.828125 -3.140625 1.46875 -2.984375 C 0.796875 -2.703125 0.46875 -2.203125 0.46875 -1.453125 C 0.46875 -0.40625 1.1875 0.25 2.359375 0.25 C 3.078125 0.25 3.65625 0 4.3125 -0.59375 C 4.375 0 4.65625 0.25 5.265625 0.25 C 5.453125 0.25 5.578125 0.234375 5.890625 0.15625 Z M 4.28125 -1.8125 C 4.28125 -1.5 4.1875 -1.3125 3.921875 -1.0625 C 3.546875 -0.71875 3.09375 -0.546875 2.546875 -0.546875 C 1.84375 -0.546875 1.421875 -0.890625 1.421875 -1.46875 C 1.421875 -2.078125 1.8125 -2.390625 2.8125 -2.53125 C 3.78125 -2.65625 3.96875 -2.703125 4.28125 -2.84375 Z M 4.28125 -1.8125 "/>
</g>
<g id="glyph-1-3">
<path d="M 2.796875 -5.765625 L 1.84375 -5.765625 L 1.84375 -7.34375 L 0.9375 -7.34375 L 0.9375 -5.765625 L 0.15625 -5.765625 L 0.15625 -5.015625 L 0.9375 -5.015625 L 0.9375 -0.65625 C 0.9375 -0.0625 1.328125 0.25 2.046875 0.25 C 2.28125 0.25 2.484375 0.234375 2.796875 0.171875 L 2.796875 -0.59375 C 2.65625 -0.5625 2.546875 -0.546875 2.359375 -0.546875 C 1.953125 -0.546875 1.84375 -0.65625 1.84375 -1.0625 L 1.84375 -5.015625 L 2.796875 -5.015625 Z M 2.796875 -5.765625 "/>
</g>
<g id="glyph-2-0">
<path d="M -5.765625 -2.84375 L -5.765625 -1.875 L -6.671875 -1.875 C -7.046875 -1.875 -7.25 -2.09375 -7.25 -2.515625 C -7.25 -2.59375 -7.25 -2.625 -7.234375 -2.84375 L -8 -2.84375 C -8.046875 -2.625 -8.046875 -2.515625 -8.046875 -2.328125 C -8.046875 -1.46875 -7.5625 -0.96875 -6.75 -0.96875 L -5.765625 -0.96875 L -5.765625 -0.203125 L -5.015625 -0.203125 L -5.015625 -0.96875 L 0 -0.96875 L 0 -1.875 L -5.015625 -1.875 L -5.015625 -2.84375 Z M -5.765625 -2.84375 "/>
</g>
<g id="glyph-2-1">
<path d="M -5.765625 -0.765625 L 0 -0.765625 L 0 -1.6875 L -2.984375 -1.6875 C -4.375 -1.6875 -5 -2.265625 -4.96875 -3.53125 L -5.890625 -3.53125 C -5.921875 -3.375 -5.921875 -3.28125 -5.921875 -3.171875 C -5.921875 -2.578125 -5.578125 -2.140625 -4.71875 -1.609375 L -5.765625 -1.609375 Z M -5.765625 -0.765625 "/>
</g>
<g id="glyph-2-2">
<path d="M -2.578125 -5.640625 C -3.453125 -5.640625 -3.984375 -5.578125 -4.40625 -5.40625 C -5.359375 -5.03125 -5.921875 -4.15625 -5.921875 -3.078125 C -5.921875 -1.46875 -4.703125 -0.4375 -2.8125 -0.4375 C -0.90625 -0.4375 0.25 -1.4375 0.25 -3.0625 C 0.25 -4.375 -0.5 -5.296875 -1.75 -5.515625 L -1.75 -4.59375 C -0.984375 -4.34375 -0.59375 -3.828125 -0.59375 -3.09375 C -0.59375 -2.515625 -0.859375 -2.015625 -1.34375 -1.703125 C -1.671875 -1.484375 -2 -1.40625 -2.578125 -1.390625 Z M -3.328125 -1.421875 C -4.390625 -1.5 -5.078125 -2.140625 -5.078125 -3.0625 C -5.078125 -4 -4.359375 -4.65625 -3.328125 -4.65625 Z M -3.328125 -1.421875 "/>
</g>
<g id="glyph-2-3">
<path d="M 2.390625 -5.4375 L -5.765625 -5.4375 L -5.765625 -4.625 L -5 -4.625 C -5.59375 -4.203125 -5.921875 -3.546875 -5.921875 -2.796875 C -5.921875 -1.28125 -4.6875 -0.28125 -2.765625 -0.28125 C -0.90625 -0.28125 0.25 -1.21875 0.25 -2.75 C 0.25 -3.546875 -0.03125 -4.109375 -0.65625 -4.53125 L 2.390625 -4.53125 Z M -5.078125 -2.921875 C -5.078125 -3.90625 -4.203125 -4.53125 -2.8125 -4.53125 C -1.484375 -4.53125 -0.609375 -3.890625 -0.609375 -2.921875 C -0.609375 -1.90625 -1.5 -1.25 -2.84375 -1.25 C -4.1875 -1.25 -5.078125 -1.90625 -5.078125 -2.921875 Z M -5.078125 -2.921875 "/>
</g>
</g>
<clipPath id="clip-0">
<path clip-rule="nonzero" d="M 35.152344 5.480469 L 498.523438 5.480469 L 498.523438 325.851562 L 35.152344 325.851562 Z M 35.152344 5.480469 "/>
</clipPath>
<clipPath id="clip-1">
<path clip-rule="nonzero" d="M 35.152344 279 L 498.523438 279 L 498.523438 280 L 35.152344 280 Z M 35.152344 279 "/>
</clipPath>
<clipPath id="clip-2">
<path clip-rule="nonzero" d="M 35.152344 216 L 498.523438 216 L 498.523438 217 L 35.152344 217 Z M 35.152344 216 "/>
</clipPath>
<clipPath id="clip-3">
<path clip-rule="nonzero" d="M 35.152344 152 L 498.523438 152 L 498.523438 154 L 35.152344 154 Z M 35.152344 152 "/>
</clipPath>
<clipPath id="clip-4">
<path clip-rule="nonzero" d="M 35.152344 89 L 498.523438 89 L 498.523438 90 L 35.152344 90 Z M 35.152344 89 "/>
</clipPath>
<clipPath id="clip-5">
<path clip-rule="nonzero" d="M 35.152344 26 L 498.523438 26 L 498.523438 27 L 35.152344 27 Z M 35.152344 26 "/>
</clipPath>
<clipPath id="clip-6">
<path clip-rule="nonzero" d="M 35.152344 310 L 498.523438 310 L 498.523438 312 L 35.152344 312 Z M 35.152344 310 "/>
</clipPath>
<clipPath id="clip-7">
<path clip-rule="nonzero" d="M 35.152344 247 L 498.523438 247 L 498.523438 249 L 35.152344 249 Z M 35.152344 247 "/>
</clipPath>
<clipPath id="clip-8">
<path clip-rule="nonzero" d="M 35.152344 184 L 498.523438 184 L 498.523438 186 L 35.152344 186 Z M 35.152344 184 "/>
</clipPath>
<clipPath id="clip-9">
<path clip-rule="nonzero" d="M 35.152344 120 L 498.523438 120 L 498.523438 122 L 35.152344 122 Z M 35.152344 120 "/>
</clipPath>
<clipPath id="clip-10">
<path clip-rule="nonzero" d="M 35.152344 57 L 498.523438 57 L 498.523438 59 L 35.152344 59 Z M 35.152344 57 "/>
</clipPath>
<clipPath id="clip-11">
<path clip-rule="nonzero" d="M 79 5.480469 L 81 5.480469 L 81 325.851562 L 79 325.851562 Z M 79 5.480469 "/>
</clipPath>
<clipPath id="clip-12">
<path clip-rule="nonzero" d="M 154 5.480469 L 156 5.480469 L 156 325.851562 L 154 325.851562 Z M 154 5.480469 "/>
</clipPath>
<clipPath id="clip-13">
<path clip-rule="nonzero" d="M 228 5.480469 L 231 5.480469 L 231 325.851562 L 228 325.851562 Z M 228 5.480469 "/>
</clipPath>
<clipPath id="clip-14">
<path clip-rule="nonzero" d="M 303 5.480469 L 305 5.480469 L 305 325.851562 L 303 325.851562 Z M 303 5.480469 "/>
</clipPath>
<clipPath id="clip-15">
<path clip-rule="nonzero" d="M 378 5.480469 L 380 5.480469 L 380 325.851562 L 378 325.851562 Z M 378 5.480469 "/>
</clipPath>
<clipPath id="clip-16">
<path clip-rule="nonzero" d="M 453 5.480469 L 455 5.480469 L 455 325.851562 L 453 325.851562 Z M 453 5.480469 "/>
</clipPath>
</defs>
<rect x="-50.4" y="-36" width="604.8" height="432" fill="rgb(100%, 100%, 100%)" fill-opacity="1"/>
<rect x="-50.4" y="-36" width="604.8" height="432" fill="rgb(100%, 100%, 100%)" fill-opacity="1"/>
<path fill="none" stroke-width="1.066978" stroke-linecap="round" stroke-linejoin="round" stroke="rgb(100%, 100%, 100%)" stroke-opacity="1" stroke-miterlimit="10" d="M 0 360 L 504 360 L 504 0 L 0 0 Z M 0 360 "/>
<g clip-path="url(#clip-0)">
<path fill-rule="nonzero" fill="rgb(92.156863%, 92.156863%, 92.156863%)" fill-opacity="1" d="M 35.152344 325.847656 L 498.523438 325.847656 L 498.523438 5.476562 L 35.152344 5.476562 Z M 35.152344 325.847656 "/>
</g>
<g clip-path="url(#clip-1)">
<path fill="none" stroke-width="0.533489" stroke-linecap="butt" stroke-linejoin="round" stroke="rgb(100%, 100%, 100%)" stroke-opacity="1" stroke-miterlimit="10" d="M 35.152344 279.628906 L 498.519531 279.628906 "/>
</g>
<g clip-path="url(#clip-2)">
<path fill="none" stroke-width="0.533489" stroke-linecap="butt" stroke-linejoin="round" stroke="rgb(100%, 100%, 100%)" stroke-opacity="1" stroke-miterlimit="10" d="M 35.152344 216.316406 L 498.519531 216.316406 "/>
</g>
<g clip-path="url(#clip-3)">
<path fill="none" stroke-width="0.533489" stroke-linecap="butt" stroke-linejoin="round" stroke="rgb(100%, 100%, 100%)" stroke-opacity="1" stroke-miterlimit="10" d="M 35.152344 153 L 498.519531 153 "/>
</g>
<g clip-path="url(#clip-4)">
<path fill="none" stroke-width="0.533489" stroke-linecap="butt" stroke-linejoin="round" stroke="rgb(100%, 100%, 100%)" stroke-opacity="1" stroke-miterlimit="10" d="M 35.152344 89.6875 L 498.519531 89.6875 "/>
</g>
<g clip-path="url(#clip-5)">
<path fill="none" stroke-width="0.533489" stroke-linecap="butt" stroke-linejoin="round" stroke="rgb(100%, 100%, 100%)" stroke-opacity="1" stroke-miterlimit="10" d="M 35.152344 26.375 L 498.519531 26.375 "/>
</g>
<g clip-path="url(#clip-6)">
<path fill="none" stroke-width="1.066978" stroke-linecap="butt" stroke-linejoin="round" stroke="rgb(100%, 100%, 100%)" stroke-opacity="1" stroke-miterlimit="10" d="M 35.152344 311.285156 L 498.519531 311.285156 "/>
</g>
<g clip-path="url(#clip-7)">
<path fill="none" stroke-width="1.066978" stroke-linecap="butt" stroke-linejoin="round" stroke="rgb(100%, 100%, 100%)" stroke-opacity="1" stroke-miterlimit="10" d="M 35.152344 247.972656 L 498.519531 247.972656 "/>
</g>
<g clip-path="url(#clip-8)">
<path fill="none" stroke-width="1.066978" stroke-linecap="butt" stroke-linejoin="round" stroke="rgb(100%, 100%, 100%)" stroke-opacity="1" stroke-miterlimit="10" d="M 35.152344 184.660156 L 498.519531 184.660156 "/>
</g>
<g clip-path="url(#clip-9)">
<path fill="none" stroke-width="1.066978" stroke-linecap="butt" stroke-linejoin="round" stroke="rgb(100%, 100%, 100%)" stroke-opacity="1" stroke-miterlimit="10" d="M 35.152344 121.34375 L 498.519531 121.34375 "/>
</g>
<g clip-path="url(#clip-10)">
<path fill="none" stroke-width="1.066978" stroke-linecap="butt" stroke-linejoin="round" stroke="rgb(100%, 100%, 100%)" stroke-opacity="1" stroke-miterlimit="10" d="M 35.152344 58.03125 L 498.519531 58.03125 "/>
</g>
<g clip-path="url(#clip-11)">
<path fill="none" stroke-width="1.066978" stroke-linecap="butt" stroke-linejoin="round" stroke="rgb(100%, 100%, 100%)" stroke-opacity="1" stroke-miterlimit="10" d="M 79.992188 325.847656 L 79.992188 5.480469 "/>
</g>
<g clip-path="url(#clip-12)">
<path fill="none" stroke-width="1.066978" stroke-linecap="butt" stroke-linejoin="round" stroke="rgb(100%, 100%, 100%)" stroke-opacity="1" stroke-miterlimit="10" d="M 154.730469 325.847656 L 154.730469 5.480469 "/>
</g>
<g clip-path="url(#clip-13)">
<path fill="none" stroke-width="1.066978" stroke-linecap="butt" stroke-linejoin="round" stroke="rgb(100%, 100%, 100%)" stroke-opacity="1" stroke-miterlimit="10" d="M 229.46875 325.847656 L 229.46875 5.480469 "/>
</g>
<g clip-path="url(#clip-14)">
<path fill="none" stroke-width="1.066978" stroke-linecap="butt" stroke-linejoin="round" stroke="rgb(100%, 100%, 100%)" stroke-opacity="1" stroke-miterlimit="10" d="M 304.203125 325.847656 L 304.203125 5.480469 "/>
</g>
<g clip-path="url(#clip-15)">
<path fill="none" stroke-width="1.066978" stroke-linecap="butt" stroke-linejoin="round" stroke="rgb(100%, 100%, 100%)" stroke-opacity="1" stroke-miterlimit="10" d="M 378.941406 325.847656 L 378.941406 5.480469 "/>
</g>
<g clip-path="url(#clip-16)">
<path fill="none" stroke-width="1.066978" stroke-linecap="butt" stroke-linejoin="round" stroke="rgb(100%, 100%, 100%)" stroke-opacity="1" stroke-miterlimit="10" d="M 453.679688 325.847656 L 453.679688 5.480469 "/>
</g>
<path fill-rule="nonzero" fill="rgb(67.843137%, 84.705882%, 90.196078%)" fill-opacity="1" stroke-width="1.066978" stroke-linecap="butt" stroke-linejoin="miter" stroke="rgb(0%, 0%, 0%)" stroke-opacity="1" stroke-miterlimit="10" d="M 42.625 311.285156 L 117.363281 311.285156 L 117.363281 20.039062 L 42.625 20.039062 Z M 42.625 311.285156 "/>
<path fill-rule="nonzero" fill="rgb(67.843137%, 84.705882%, 90.196078%)" fill-opacity="1" stroke-width="1.066978" stroke-linecap="butt" stroke-linejoin="miter" stroke="rgb(0%, 0%, 0%)" stroke-opacity="1" stroke-miterlimit="10" d="M 416.308594 311.285156 L 491.046875 311.285156 L 491.046875 121.34375 L 416.308594 121.34375 Z M 416.308594 311.285156 "/>
<path fill-rule="nonzero" fill="rgb(67.843137%, 84.705882%, 90.196078%)" fill-opacity="1" stroke-width="1.066978" stroke-linecap="butt" stroke-linejoin="miter" stroke="rgb(0%, 0%, 0%)" stroke-opacity="1" stroke-miterlimit="10" d="M 266.835938 311.285156 L 341.574219 311.285156 L 341.574219 209.984375 L 266.835938 209.984375 Z M 266.835938 311.285156 "/>
<path fill-rule="nonzero" fill="rgb(67.843137%, 84.705882%, 90.196078%)" fill-opacity="1" stroke-width="1.066978" stroke-linecap="butt" stroke-linejoin="miter" stroke="rgb(0%, 0%, 0%)" stroke-opacity="1" stroke-miterlimit="10" d="M 192.097656 311.285156 L 266.835938 311.285156 L 266.835938 184.65625 L 192.097656 184.65625 Z M 192.097656 311.285156 "/>
<path fill-rule="nonzero" fill="rgb(67.843137%, 84.705882%, 90.196078%)" fill-opacity="1" stroke-width="1.066978" stroke-linecap="butt" stroke-linejoin="miter" stroke="rgb(0%, 0%, 0%)" stroke-opacity="1" stroke-miterlimit="10" d="M 341.574219 311.285156 L 416.3125 311.285156 L 416.3125 247.972656 L 341.574219 247.972656 Z M 341.574219 311.285156 "/>
<path fill-rule="nonzero" fill="rgb(67.843137%, 84.705882%, 90.196078%)" fill-opacity="1" stroke-width="1.066978" stroke-linecap="butt" stroke-linejoin="miter" stroke="rgb(0%, 0%, 0%)" stroke-opacity="1" stroke-miterlimit="10" d="M 117.363281 311.285156 L 192.101562 311.285156 L 192.101562 298.621094 L 117.363281 298.621094 Z M 117.363281 311.285156 "/>
<g fill="rgb(30.196078%, 30.196078%, 30.196078%)" fill-opacity="1">
<use xlink:href="#glyph-0-0" x="25.21875" y="314.200195"/>
</g>
<g fill="rgb(30.196078%, 30.196078%, 30.196078%)" fill-opacity="1">
<use xlink:href="#glyph-0-1" x="25.21875" y="250.887695"/>
</g>
<g fill="rgb(30.196078%, 30.196078%, 30.196078%)" fill-opacity="1">
<use xlink:href="#glyph-0-2" x="20.21875" y="187.575195"/>
<use xlink:href="#glyph-0-0" x="25.21875" y="187.575195"/>
</g>
<g fill="rgb(30.196078%, 30.196078%, 30.196078%)" fill-opacity="1">
<use xlink:href="#glyph-0-2" x="20.21875" y="124.258789"/>
<use xlink:href="#glyph-0-1" x="25.21875" y="124.258789"/>
</g>
<g fill="rgb(30.196078%, 30.196078%, 30.196078%)" fill-opacity="1">
<use xlink:href="#glyph-0-3" x="20.21875" y="60.946289"/>
<use xlink:href="#glyph-0-0" x="25.21875" y="60.946289"/>
</g>
<path fill="none" stroke-width="1.066978" stroke-linecap="butt" stroke-linejoin="round" stroke="rgb(20%, 20%, 20%)" stroke-opacity="1" stroke-miterlimit="10" d="M 32.410156 311.285156 L 35.152344 311.285156 "/>
<path fill="none" stroke-width="1.066978" stroke-linecap="butt" stroke-linejoin="round" stroke="rgb(20%, 20%, 20%)" stroke-opacity="1" stroke-miterlimit="10" d="M 32.410156 247.972656 L 35.152344 247.972656 "/>
<path fill="none" stroke-width="1.066978" stroke-linecap="butt" stroke-linejoin="round" stroke="rgb(20%, 20%, 20%)" stroke-opacity="1" stroke-miterlimit="10" d="M 32.410156 184.660156 L 35.152344 184.660156 "/>
<path fill="none" stroke-width="1.066978" stroke-linecap="butt" stroke-linejoin="round" stroke="rgb(20%, 20%, 20%)" stroke-opacity="1" stroke-miterlimit="10" d="M 32.410156 121.34375 L 35.152344 121.34375 "/>
<path fill="none" stroke-width="1.066978" stroke-linecap="butt" stroke-linejoin="round" stroke="rgb(20%, 20%, 20%)" stroke-opacity="1" stroke-miterlimit="10" d="M 32.410156 58.03125 L 35.152344 58.03125 "/>
<path fill="none" stroke-width="1.066978" stroke-linecap="butt" stroke-linejoin="round" stroke="rgb(20%, 20%, 20%)" stroke-opacity="1" stroke-miterlimit="10" d="M 79.992188 328.589844 L 79.992188 325.847656 "/>
<path fill="none" stroke-width="1.066978" stroke-linecap="butt" stroke-linejoin="round" stroke="rgb(20%, 20%, 20%)" stroke-opacity="1" stroke-miterlimit="10" d="M 154.730469 328.589844 L 154.730469 325.847656 "/>
<path fill="none" stroke-width="1.066978" stroke-linecap="butt" stroke-linejoin="round" stroke="rgb(20%, 20%, 20%)" stroke-opacity="1" stroke-miterlimit="10" d="M 229.46875 328.589844 L 229.46875 325.847656 "/>
<path fill="none" stroke-width="1.066978" stroke-linecap="butt" stroke-linejoin="round" stroke="rgb(20%, 20%, 20%)" stroke-opacity="1" stroke-miterlimit="10" d="M 304.203125 328.589844 L 304.203125 325.847656 "/>
<path fill="none" stroke-width="1.066978" stroke-linecap="butt" stroke-linejoin="round" stroke="rgb(20%, 20%, 20%)" stroke-opacity="1" stroke-miterlimit="10" d="M 378.941406 328.589844 L 378.941406 325.847656 "/>
<path fill="none" stroke-width="1.066978" stroke-linecap="butt" stroke-linejoin="round" stroke="rgb(20%, 20%, 20%)" stroke-opacity="1" stroke-miterlimit="10" d="M 453.679688 328.589844 L 453.679688 325.847656 "/>
<g fill="rgb(30.196078%, 30.196078%, 30.196078%)" fill-opacity="1">
<use xlink:href="#glyph-0-4" x="69.992188" y="337.196289"/>
<use xlink:href="#glyph-0-5" x="74.992188" y="337.196289"/>
<use xlink:href="#glyph-0-6" x="76.992188" y="337.196289"/>
<use xlink:href="#glyph-0-7" x="81.992188" y="337.196289"/>
<use xlink:href="#glyph-0-8" x="85.992188" y="337.196289"/>
</g>
<g fill="rgb(30.196078%, 30.196078%, 30.196078%)" fill-opacity="1">
<use xlink:href="#glyph-0-7" x="143.730469" y="337.196289"/>
<use xlink:href="#glyph-0-6" x="147.730469" y="337.196289"/>
<use xlink:href="#glyph-0-5" x="152.730469" y="337.196289"/>
<use xlink:href="#glyph-0-9" x="154.730469" y="337.196289"/>
<use xlink:href="#glyph-0-7" x="156.730469" y="337.196289"/>
<use xlink:href="#glyph-0-10" x="160.730469" y="337.196289"/>
</g>
<g fill="rgb(30.196078%, 30.196078%, 30.196078%)" fill-opacity="1">
<use xlink:href="#glyph-0-11" x="216.96875" y="337.196289"/>
<use xlink:href="#glyph-0-9" x="221.96875" y="337.196289"/>
<use xlink:href="#glyph-0-12" x="223.96875" y="337.196289"/>
<use xlink:href="#glyph-0-11" x="228.96875" y="337.196289"/>
<use xlink:href="#glyph-0-13" x="233.96875" y="337.196289"/>
<use xlink:href="#glyph-0-14" x="238.96875" y="337.196289"/>
</g>
<g fill="rgb(30.196078%, 30.196078%, 30.196078%)" fill-opacity="1">
<use xlink:href="#glyph-0-15" x="293.703125" y="337.196289"/>
<use xlink:href="#glyph-0-6" x="295.703125" y="337.196289"/>
<use xlink:href="#glyph-0-4" x="300.703125" y="337.196289"/>
<use xlink:href="#glyph-0-4" x="305.703125" y="337.196289"/>
<use xlink:href="#glyph-0-16" x="310.703125" y="337.196289"/>
</g>
<g fill="rgb(30.196078%, 30.196078%, 30.196078%)" fill-opacity="1">
<use xlink:href="#glyph-0-15" x="355.941406" y="337.196289"/>
<use xlink:href="#glyph-0-10" x="357.941406" y="337.196289"/>
<use xlink:href="#glyph-0-14" x="362.941406" y="337.196289"/>
<use xlink:href="#glyph-0-15" x="365.941406" y="337.196289"/>
<use xlink:href="#glyph-0-10" x="367.941406" y="337.196289"/>
<use xlink:href="#glyph-0-9" x="372.941406" y="337.196289"/>
<use xlink:href="#glyph-0-17" x="374.941406" y="337.196289"/>
<use xlink:href="#glyph-0-13" x="378.941406" y="337.196289"/>
<use xlink:href="#glyph-0-17" x="383.941406" y="337.196289"/>
<use xlink:href="#glyph-0-18" x="387.941406" y="337.196289"/>
<use xlink:href="#glyph-0-13" x="392.941406" y="337.196289"/>
<use xlink:href="#glyph-0-5" x="397.941406" y="337.196289"/>
<use xlink:href="#glyph-0-5" x="399.941406" y="337.196289"/>
</g>
<g fill="rgb(30.196078%, 30.196078%, 30.196078%)" fill-opacity="1">
<use xlink:href="#glyph-0-19" x="443.679688" y="337.196289"/>
<use xlink:href="#glyph-0-18" x="449.679688" y="337.196289"/>
<use xlink:href="#glyph-0-9" x="454.679688" y="337.196289"/>
<use xlink:href="#glyph-0-15" x="456.679688" y="337.196289"/>
<use xlink:href="#glyph-0-13" x="458.679688" y="337.196289"/>
</g>
<g fill="rgb(0%, 0%, 0%)" fill-opacity="1">
<use xlink:href="#glyph-1-0" x="256.335938" y="350.538086"/>
<use xlink:href="#glyph-1-1" x="262.335938" y="350.538086"/>
<use xlink:href="#glyph-1-2" x="268.335938" y="350.538086"/>
<use xlink:href="#glyph-1-3" x="274.335938" y="350.538086"/>
</g>
<g fill="rgb(0%, 0%, 0%)" fill-opacity="1">
<use xlink:href="#glyph-2-0" x="13.499023" y="175.164062"/>
<use xlink:href="#glyph-2-1" x="13.499023" y="172.164062"/>
<use xlink:href="#glyph-2-2" x="13.499023" y="168.164062"/>
<use xlink:href="#glyph-2-3" x="13.499023" y="162.164062"/>
</g>
</svg>
